<?xml version="1.0" encoding="utf-8"?>
<!-- Generator: Adobe Illustrator 16.0.0, SVG Export Plug-In . SVG Version: 6.00 Build 0)  -->
<!DOCTYPE svg PUBLIC "-//W3C//DTD SVG 1.1//EN" "http://www.w3.org/Graphics/SVG/1.1/DTD/svg11.dtd">
<svg version="1.1" id="Layer_1" xmlns="http://www.w3.org/2000/svg" xmlns:xlink="http://www.w3.org/1999/xlink" x="0px" y="0px"
	 width="1411.891px" height="293.328px" viewBox="0 0 1411.891 293.328" enable-background="new 0 0 1411.891 293.328"
	 xml:space="preserve">
<g>
	<rect x="15.891" y="157.664" fill="#FF5D6A" width="287" height="131"/>
	<path fill="#4D4D4D" d="M159.283,289c0,0,2.715-7.518,15.648-11.168c10.631-3,26.484-3.168,26.484-3.168h36.41
		c0,0,20.104-0.207,32.262-2.35c13.111-2.311,16.803-8.314,16.803-8.314V146c0,0-3.692,6.004-16.803,8.314
		c-12.158,2.143-32.262,2.35-32.262,2.35h-36.41c0,0-15.854,0.168-26.484,3.168c-12.934,3.65-15.648,11.084-15.648,11.084
		s-2.715-7.476-15.65-11.126c-10.629-3-26.483-3.126-26.483-3.126H80.74c0,0-19.996-0.207-32.155-2.35
		C35.475,152.003,31.891,146,31.891,146v118c0,0,3.583,6.004,16.694,8.314c12.159,2.143,32.155,2.35,32.155,2.35h36.409
		c0,0,15.854,0.168,26.483,3.168C156.568,281.482,159.283,289,159.283,289z"/>
	<path fill="#FFFFFF" d="M159.283,278c0,0,2.396-7.518,13.82-11.168c9.387-3,23.388-3.168,23.388-3.168h32.154
		c0,0,18.212-0.207,28.95-2.35c11.578-2.311,15.296-8.314,15.296-8.314V135c0,0-3.718,6.004-15.296,8.314
		c-10.737,2.143-28.95,2.35-28.95,2.35h-32.154c0,0-14.001,0.168-23.388,3.168c-11.424,3.65-13.82,11.084-13.82,11.084
		s-2.398-7.476-13.82-11.126c-9.388-3-23.389-3.126-23.389-3.126H89.919c0,0-17.603-0.207-28.341-2.35
		C50,141.003,46.891,135,46.891,135v118c0,0,3.109,6.004,14.687,8.314c10.738,2.143,28.341,2.35,28.341,2.35h32.154
		c0,0,14.001,0.168,23.389,3.168C156.884,270.482,159.283,278,159.283,278z"/>
	<g>
		<line fill="#00A99D" x1="158.891" y1="159.664" x2="158.891" y2="279.664"/>
		<path fill="#4D4D4D" d="M159.23,160c0,0,0.114,0.469,0.327,1.348c0.193,0.879,0.515,2.168,0.839,3.809
			c0.341,1.641,0.756,3.633,1.174,5.918c0.203,1.143,0.419,2.358,0.648,3.641c0.126,0.641-0.063,1.298-0.123,1.971
			c-0.054,0.673-0.204,1.361-0.204,2.064c0,11.25,0,26.25,0,41.25s0,30,0,41.25c0,0.703,0.151,1.392,0.196,2.064
			c0.07,0.673,0.147,1.33,0.006,1.971c-0.234,1.282-0.414,2.498-0.623,3.641c-0.4,2.285-0.793,4.277-1.127,5.918
			c-0.32,1.641-0.622,2.93-0.809,3.809c-0.206,0.879-0.31,1.348-0.31,1.348s-0.106-0.469-0.313-1.348
			c-0.188-0.879-0.498-2.168-0.818-3.809c-0.333-1.641-0.747-3.633-1.147-5.918c-0.208-1.143-0.431-2.358-0.665-3.641
			c-0.142-0.641-0.318-1.298-0.248-1.971c0.045-0.673-0.143-1.361-0.143-2.064c0-11.25,0-26.25,0-41.25s0-30,0-41.25
			c0-0.703,0.188-1.392,0.135-2.064c-0.059-0.673,0.006-1.33,0.132-1.971c0.229-1.282,0.487-2.498,0.69-3.641
			c0.418-2.285,0.855-4.277,1.196-5.918c0.324-1.641,0.656-2.93,0.849-3.809C159.105,160.468,159.23,160,159.23,160z"/>
	</g>
	<path fill="none" stroke="#FF5D6A" stroke-width="23" stroke-miterlimit="10" d="M51.223,82.67C72.831,45.777,112.886,21,158.73,21
		c46.082,0,86.316,25.037,107.844,62.249"/>
	<path fill="none" stroke="#FF5D6A" stroke-width="23" stroke-miterlimit="10" d="M90.146,104.628
		c13.797-23.557,39.373-39.378,68.645-39.378c29.424,0,55.114,15.986,68.859,39.747"/>
	<path fill="none" stroke="#FF5D6A" stroke-width="23" stroke-miterlimit="10" d="M126.352,128.357
		c6.531-11.151,18.639-18.641,32.495-18.641c13.93,0,26.09,7.567,32.598,18.815"/>
</g>
<g>
	<path fill="#FFFFFF" d="M488.41,92.128l-33.596,151.9H439.15l-21.229-97.076l-21.435,97.076h-15.664l-33.596-151.9h19.992
		l21.436,96.87l21.435-96.87h15.664l21.229,96.87l21.436-96.87H488.41z"/>
	<path fill="#FFFFFF" d="M501.804,244.029v-151.9h19.373v151.9H501.804z"/>
	<path fill="#FFFFFF" d="M596.199,169.212c3.71,3.574,6.56,7.832,8.554,12.778c1.99,4.947,2.988,10.583,2.988,16.901v44.931h-19.58
		v-44.931c0-13.326-6.46-19.992-19.374-19.992H559.1h-2.474v64.923h-19.374v-151.9h31.534c13.053,0,22.878,3.849,29.473,11.542
		c6.045,7.008,9.069,17.59,9.069,31.74c0,14.016-3.024,24.665-9.069,31.946c-0.276,0.277-0.586,0.618-0.927,1.031
		C596.988,168.594,596.611,168.939,596.199,169.212z M568.787,159.319c5.221,0,8.827-0.618,10.82-1.854
		c1.99-1.236,3.263-2.196,3.813-2.886c3.021-3.845,4.534-10.305,4.534-19.374c0-5.082-0.412-9.172-1.236-12.263
		c-0.825-3.092-2.029-5.494-3.607-7.214c-1.581-1.717-3.574-2.851-5.977-3.401c-2.406-0.547-5.188-0.824-8.348-0.824h-12.16v47.816
		h2.474H568.787z"/>
	<path fill="#FFFFFF" d="M642.571,111.502v46.786h43.488v19.374h-43.488v46.992h43.488v19.374h-62.862v-151.9h62.862v19.374H642.571
		z"/>
	<path fill="#FFFFFF" d="M730.165,244.029h-30.298v-151.9h30.298c13.052,0,22.877,4.055,29.473,12.16
		c6.045,7.285,9.068,17.864,9.068,31.74v63.894c0,13.88-3.023,24.526-9.068,31.946C753.042,239.978,743.216,244.029,730.165,244.029
		z M719.241,224.655h10.924c2.473,0,4.843-0.238,7.11-0.722c2.268-0.479,4.258-1.545,5.977-3.194
		c1.717-1.648,3.124-4.122,4.226-7.42c1.099-3.298,1.648-7.761,1.648-13.396v-63.894c0-5.632-0.55-10.099-1.648-13.396
		c-1.102-3.298-2.509-5.771-4.226-7.42c-1.719-1.648-3.709-2.679-5.977-3.092c-2.268-0.412-4.638-0.618-7.11-0.618h-10.924V224.655z
		"/>
	<path fill="#FFFFFF" d="M844.14,243.823v-151.9h19.374v132.526H910.3v19.374H844.14z"/>
	<path fill="#FFFFFF" d="M923.695,244.029v-151.9h19.373v151.9H923.695z"/>
	<path fill="#FFFFFF" d="M1015.205,167.976c0.824,0.824,1.372,1.513,1.649,2.061c5.906,7.146,8.862,17.59,8.862,31.328
		c0,13.88-2.956,24.253-8.862,31.122c-6.184,7.697-15.664,11.542-28.443,11.542h-9.893h-19.374v-19.374V92.128h29.267
		c12.914,0,22.396,3.849,28.443,11.542c5.906,6.873,8.862,17.245,8.862,31.122c0,13.741-2.956,24.186-8.862,31.328
		C1016.577,166.533,1016.029,167.151,1015.205,167.976z M978.518,158.289h9.893c4.396,0,7.556-0.516,9.481-1.546
		c1.923-1.03,3.227-2.025,3.916-2.988c2.886-3.433,4.328-9.755,4.328-18.962c0-5.358-0.447-9.584-1.34-12.676
		c-0.896-3.091-2.132-5.426-3.71-7.007c-1.581-1.578-3.472-2.576-5.668-2.989c-2.199-0.412-4.534-0.618-7.008-0.618h-9.893V158.289z
		 M988.411,224.655c2.474,0,4.809-0.206,7.008-0.618c2.196-0.412,4.087-1.407,5.668-2.988c1.578-1.578,2.814-3.916,3.71-7.008
		c0.893-3.092,1.34-7.316,1.34-12.676c0-5.494-0.483-9.822-1.442-12.984c-0.963-3.159-2.235-5.529-3.813-7.11
		c-1.581-1.578-3.437-2.577-5.564-2.989c-2.132-0.412-4.432-0.618-6.905-0.618h-9.893v46.992H988.411z"/>
	<path fill="#FFFFFF" d="M1095.584,169.212c3.71,3.574,6.56,7.832,8.554,12.778c1.99,4.947,2.988,10.583,2.988,16.901v44.931h-19.58
		v-44.931c0-13.326-6.46-19.992-19.374-19.992h-9.687h-2.474v64.923h-19.374v-151.9h31.534c13.053,0,22.878,3.849,29.473,11.542
		c6.045,7.008,9.069,17.59,9.069,31.74c0,14.016-3.024,24.665-9.069,31.946c-0.276,0.277-0.586,0.618-0.927,1.031
		C1096.374,168.594,1095.997,168.939,1095.584,169.212z M1068.172,159.319c5.221,0,8.827-0.618,10.82-1.854
		c1.99-1.236,3.263-2.196,3.813-2.886c3.021-3.845,4.534-10.305,4.534-19.374c0-5.082-0.412-9.172-1.236-12.263
		c-0.825-3.092-2.029-5.494-3.607-7.214c-1.581-1.717-3.574-2.851-5.977-3.401c-2.406-0.547-5.188-0.824-8.348-0.824h-12.16v47.816
		h2.474H1068.172z"/>
	<path fill="#FFFFFF" d="M1142.575,244.029h-19.992l35.038-151.9h15.458l35.45,151.9h-20.198l-9.688-42.458h-26.381
		L1142.575,244.029z M1165.453,144.892l-8.656,37.305h17.313L1165.453,144.892z"/>
	<path fill="#FFFFFF" d="M1271.596,169.212c3.71,3.574,6.56,7.832,8.554,12.778c1.99,4.947,2.988,10.583,2.988,16.901v44.931h-19.58
		v-44.931c0-13.326-6.46-19.992-19.374-19.992h-9.687h-2.474v64.923h-19.374v-151.9h31.534c13.053,0,22.878,3.849,29.473,11.542
		c6.045,7.008,9.069,17.59,9.069,31.74c0,14.016-3.024,24.665-9.069,31.946c-0.276,0.277-0.586,0.618-0.927,1.031
		C1272.385,168.594,1272.008,168.939,1271.596,169.212z M1244.184,159.319c5.221,0,8.827-0.618,10.82-1.854
		c1.99-1.236,3.263-2.196,3.813-2.886c3.021-3.845,4.534-10.305,4.534-19.374c0-5.082-0.412-9.172-1.236-12.263
		c-0.825-3.092-2.029-5.494-3.607-7.214c-1.581-1.717-3.574-2.851-5.977-3.401c-2.406-0.547-5.188-0.824-8.348-0.824h-12.16v47.816
		h2.474H1244.184z"/>
	<path fill="#FFFFFF" d="M1398.555,92.128l-43.488,78.32v73.58h-19.374v-73.58l-43.282-78.32h22.26l30.71,55.648l30.916-55.648
		H1398.555z"/>
</g>
</svg>
